<mxfile host="app.diagrams.net" agent="Mozilla/5.0 (Windows NT 10.0; Win64; x64) AppleWebKit/537.36 (KHTML, like Gecko) Chrome/127.0.0.0 Safari/537.36" version="24.7.7">
  <diagram name="PÃ¡gina-1" id="f1gA74yMZtYUOhIqnCV9">
    <mxGraphModel dx="2261" dy="1915" grid="1" gridSize="10" guides="1" tooltips="1" connect="1" arrows="1" fold="1" page="1" pageScale="1" pageWidth="827" pageHeight="1169" math="0" shadow="0">
      <root>
        <mxCell id="0" />
        <mxCell id="1" parent="0" />
        <mxCell id="7QtbccY-P1DONQSe7xPX-1" value="Profesor" style="whiteSpace=wrap;html=1;align=center;" vertex="1" parent="1">
          <mxGeometry x="110" y="-60" width="100" height="40" as="geometry" />
        </mxCell>
        <mxCell id="7QtbccY-P1DONQSe7xPX-3" value="DNI" style="ellipse;whiteSpace=wrap;html=1;align=center;fontStyle=4;" vertex="1" parent="1">
          <mxGeometry x="40" y="-120" width="100" height="40" as="geometry" />
        </mxCell>
        <mxCell id="7QtbccY-P1DONQSe7xPX-4" value="Nombre" style="ellipse;whiteSpace=wrap;html=1;align=center;" vertex="1" parent="1">
          <mxGeometry x="60" y="40" width="100" height="40" as="geometry" />
        </mxCell>
        <mxCell id="7QtbccY-P1DONQSe7xPX-5" value="Direccion" style="ellipse;whiteSpace=wrap;html=1;align=center;" vertex="1" parent="1">
          <mxGeometry x="10" y="-20" width="100" height="40" as="geometry" />
        </mxCell>
        <mxCell id="7QtbccY-P1DONQSe7xPX-6" value="Telefono" style="ellipse;whiteSpace=wrap;html=1;align=center;" vertex="1" parent="1">
          <mxGeometry x="160" y="-140" width="100" height="40" as="geometry" />
        </mxCell>
        <mxCell id="7QtbccY-P1DONQSe7xPX-8" value="" style="endArrow=none;html=1;rounded=0;entryX=0.5;entryY=1;entryDx=0;entryDy=0;exitX=0.78;exitY=0.1;exitDx=0;exitDy=0;exitPerimeter=0;" edge="1" parent="1" source="7QtbccY-P1DONQSe7xPX-4" target="7QtbccY-P1DONQSe7xPX-1">
          <mxGeometry relative="1" as="geometry">
            <mxPoint x="130" y="40" as="sourcePoint" />
            <mxPoint x="290" y="40" as="targetPoint" />
          </mxGeometry>
        </mxCell>
        <mxCell id="7QtbccY-P1DONQSe7xPX-9" value="" style="endArrow=none;html=1;rounded=0;entryX=0.5;entryY=1;entryDx=0;entryDy=0;exitX=1;exitY=0;exitDx=0;exitDy=0;" edge="1" parent="1" source="7QtbccY-P1DONQSe7xPX-1">
          <mxGeometry relative="1" as="geometry">
            <mxPoint x="188" y="-36" as="sourcePoint" />
            <mxPoint x="210" y="-100" as="targetPoint" />
          </mxGeometry>
        </mxCell>
        <mxCell id="7QtbccY-P1DONQSe7xPX-10" value="" style="endArrow=none;html=1;rounded=0;entryX=0.64;entryY=1.025;entryDx=0;entryDy=0;exitX=0.25;exitY=0;exitDx=0;exitDy=0;entryPerimeter=0;" edge="1" parent="1" source="7QtbccY-P1DONQSe7xPX-1" target="7QtbccY-P1DONQSe7xPX-3">
          <mxGeometry relative="1" as="geometry">
            <mxPoint x="88" y="-16" as="sourcePoint" />
            <mxPoint x="110" y="-80" as="targetPoint" />
          </mxGeometry>
        </mxCell>
        <mxCell id="7QtbccY-P1DONQSe7xPX-11" value="" style="endArrow=none;html=1;rounded=0;entryX=0;entryY=0.5;entryDx=0;entryDy=0;exitX=1;exitY=0;exitDx=0;exitDy=0;" edge="1" parent="1" source="7QtbccY-P1DONQSe7xPX-5" target="7QtbccY-P1DONQSe7xPX-1">
          <mxGeometry relative="1" as="geometry">
            <mxPoint x="40" y="-20" as="sourcePoint" />
            <mxPoint x="62" y="-84" as="targetPoint" />
          </mxGeometry>
        </mxCell>
        <mxCell id="7QtbccY-P1DONQSe7xPX-12" value="Modulo" style="whiteSpace=wrap;html=1;align=center;" vertex="1" parent="1">
          <mxGeometry x="460" y="-60" width="100" height="40" as="geometry" />
        </mxCell>
        <mxCell id="7QtbccY-P1DONQSe7xPX-13" value="Codigo" style="ellipse;whiteSpace=wrap;html=1;align=center;fontStyle=4;" vertex="1" parent="1">
          <mxGeometry x="540" y="-120" width="100" height="40" as="geometry" />
        </mxCell>
        <mxCell id="7QtbccY-P1DONQSe7xPX-14" value="Nombre" style="ellipse;whiteSpace=wrap;html=1;align=center;" vertex="1" parent="1">
          <mxGeometry x="620" y="-60" width="100" height="40" as="geometry" />
        </mxCell>
        <mxCell id="7QtbccY-P1DONQSe7xPX-15" value="" style="endArrow=none;html=1;rounded=0;entryX=0.5;entryY=1;entryDx=0;entryDy=0;exitX=0.75;exitY=0;exitDx=0;exitDy=0;" edge="1" parent="1" source="7QtbccY-P1DONQSe7xPX-12">
          <mxGeometry relative="1" as="geometry">
            <mxPoint x="560" y="-16" as="sourcePoint" />
            <mxPoint x="582" y="-80" as="targetPoint" />
          </mxGeometry>
        </mxCell>
        <mxCell id="7QtbccY-P1DONQSe7xPX-16" value="" style="endArrow=none;html=1;rounded=0;entryX=0.5;entryY=1;entryDx=0;entryDy=0;exitX=0;exitY=0.5;exitDx=0;exitDy=0;" edge="1" parent="1" source="7QtbccY-P1DONQSe7xPX-14">
          <mxGeometry relative="1" as="geometry">
            <mxPoint x="538" y="20" as="sourcePoint" />
            <mxPoint x="560" y="-44" as="targetPoint" />
          </mxGeometry>
        </mxCell>
        <mxCell id="7QtbccY-P1DONQSe7xPX-17" value="Alumno" style="whiteSpace=wrap;html=1;align=center;" vertex="1" parent="1">
          <mxGeometry x="460" y="190" width="100" height="40" as="geometry" />
        </mxCell>
        <mxCell id="7QtbccY-P1DONQSe7xPX-19" value="Nro Expdiente" style="ellipse;whiteSpace=wrap;html=1;align=center;fontStyle=4;" vertex="1" parent="1">
          <mxGeometry x="610" y="150" width="100" height="40" as="geometry" />
        </mxCell>
        <mxCell id="7QtbccY-P1DONQSe7xPX-20" value="Nombre" style="ellipse;whiteSpace=wrap;html=1;align=center;" vertex="1" parent="1">
          <mxGeometry x="610" y="220" width="100" height="40" as="geometry" />
        </mxCell>
        <mxCell id="7QtbccY-P1DONQSe7xPX-21" value="Apellido" style="ellipse;whiteSpace=wrap;html=1;align=center;" vertex="1" parent="1">
          <mxGeometry x="570" y="270" width="100" height="40" as="geometry" />
        </mxCell>
        <mxCell id="7QtbccY-P1DONQSe7xPX-22" value="Fecha_Nac" style="ellipse;whiteSpace=wrap;html=1;align=center;" vertex="1" parent="1">
          <mxGeometry x="450" y="270" width="100" height="40" as="geometry" />
        </mxCell>
        <mxCell id="7QtbccY-P1DONQSe7xPX-23" value="" style="endArrow=none;html=1;rounded=0;entryX=0.5;entryY=1;entryDx=0;entryDy=0;exitX=0;exitY=0.5;exitDx=0;exitDy=0;" edge="1" parent="1" source="7QtbccY-P1DONQSe7xPX-19">
          <mxGeometry relative="1" as="geometry">
            <mxPoint x="620" y="194" as="sourcePoint" />
            <mxPoint x="560" y="190" as="targetPoint" />
          </mxGeometry>
        </mxCell>
        <mxCell id="7QtbccY-P1DONQSe7xPX-24" value="" style="endArrow=none;html=1;rounded=0;entryX=0.5;entryY=1;entryDx=0;entryDy=0;exitX=0;exitY=0.5;exitDx=0;exitDy=0;" edge="1" parent="1" source="7QtbccY-P1DONQSe7xPX-20">
          <mxGeometry relative="1" as="geometry">
            <mxPoint x="620" y="214" as="sourcePoint" />
            <mxPoint x="560" y="210" as="targetPoint" />
          </mxGeometry>
        </mxCell>
        <mxCell id="7QtbccY-P1DONQSe7xPX-25" value="" style="endArrow=none;html=1;rounded=0;entryX=0.5;entryY=1;entryDx=0;entryDy=0;exitX=0.22;exitY=0.075;exitDx=0;exitDy=0;exitPerimeter=0;" edge="1" parent="1" source="7QtbccY-P1DONQSe7xPX-21">
          <mxGeometry relative="1" as="geometry">
            <mxPoint x="590" y="234" as="sourcePoint" />
            <mxPoint x="530" y="230" as="targetPoint" />
          </mxGeometry>
        </mxCell>
        <mxCell id="7QtbccY-P1DONQSe7xPX-26" value="" style="endArrow=none;html=1;rounded=0;entryX=0.38;entryY=1.05;entryDx=0;entryDy=0;exitX=0.5;exitY=0;exitDx=0;exitDy=0;entryPerimeter=0;" edge="1" parent="1" source="7QtbccY-P1DONQSe7xPX-22" target="7QtbccY-P1DONQSe7xPX-17">
          <mxGeometry relative="1" as="geometry">
            <mxPoint x="540" y="234" as="sourcePoint" />
            <mxPoint x="480" y="230" as="targetPoint" />
          </mxGeometry>
        </mxCell>
        <mxCell id="7QtbccY-P1DONQSe7xPX-29" value="" style="endArrow=none;html=1;rounded=0;entryX=0;entryY=0.5;entryDx=0;entryDy=0;exitX=1;exitY=0.5;exitDx=0;exitDy=0;" edge="1" parent="1" source="7QtbccY-P1DONQSe7xPX-1" target="7QtbccY-P1DONQSe7xPX-12">
          <mxGeometry relative="1" as="geometry">
            <mxPoint x="220" y="-40.5" as="sourcePoint" />
            <mxPoint x="380" y="-40.5" as="targetPoint" />
            <Array as="points">
              <mxPoint x="340" y="-40" />
            </Array>
          </mxGeometry>
        </mxCell>
        <mxCell id="7QtbccY-P1DONQSe7xPX-30" value="N" style="resizable=0;html=1;whiteSpace=wrap;align=right;verticalAlign=bottom;" connectable="0" vertex="1" parent="7QtbccY-P1DONQSe7xPX-29">
          <mxGeometry x="1" relative="1" as="geometry" />
        </mxCell>
        <mxCell id="7QtbccY-P1DONQSe7xPX-27" value="Impartir" style="shape=rhombus;perimeter=rhombusPerimeter;whiteSpace=wrap;html=1;align=center;" vertex="1" parent="1">
          <mxGeometry x="280" y="-70" width="120" height="60" as="geometry" />
        </mxCell>
        <mxCell id="7QtbccY-P1DONQSe7xPX-38" value="1" style="text;html=1;align=center;verticalAlign=middle;whiteSpace=wrap;rounded=0;" vertex="1" parent="1">
          <mxGeometry x="190" y="-60" width="60" height="30" as="geometry" />
        </mxCell>
        <mxCell id="7QtbccY-P1DONQSe7xPX-39" value="Matricular" style="shape=rhombus;perimeter=rhombusPerimeter;whiteSpace=wrap;html=1;align=center;" vertex="1" parent="1">
          <mxGeometry x="450" y="50" width="120" height="60" as="geometry" />
        </mxCell>
        <mxCell id="7QtbccY-P1DONQSe7xPX-42" value="N" style="text;html=1;align=center;verticalAlign=middle;whiteSpace=wrap;rounded=0;" vertex="1" parent="1">
          <mxGeometry x="490" y="-20" width="60" height="30" as="geometry" />
        </mxCell>
        <mxCell id="7QtbccY-P1DONQSe7xPX-43" value="N" style="text;html=1;align=center;verticalAlign=middle;whiteSpace=wrap;rounded=0;" vertex="1" parent="1">
          <mxGeometry x="500" y="160" width="60" height="30" as="geometry" />
        </mxCell>
        <mxCell id="7QtbccY-P1DONQSe7xPX-44" value="" style="endArrow=none;html=1;rounded=0;entryX=0.5;entryY=0;entryDx=0;entryDy=0;" edge="1" parent="1" target="7QtbccY-P1DONQSe7xPX-39">
          <mxGeometry relative="1" as="geometry">
            <mxPoint x="510" y="-20" as="sourcePoint" />
            <mxPoint x="670" y="-20" as="targetPoint" />
          </mxGeometry>
        </mxCell>
        <mxCell id="7QtbccY-P1DONQSe7xPX-45" value="" style="endArrow=none;html=1;rounded=0;entryX=0.5;entryY=0;entryDx=0;entryDy=0;" edge="1" parent="1" target="7QtbccY-P1DONQSe7xPX-17">
          <mxGeometry relative="1" as="geometry">
            <mxPoint x="509.5" y="110" as="sourcePoint" />
            <mxPoint x="508" y="190" as="targetPoint" />
          </mxGeometry>
        </mxCell>
        <mxCell id="7QtbccY-P1DONQSe7xPX-47" value="Curso" style="whiteSpace=wrap;html=1;align=center;" vertex="1" parent="1">
          <mxGeometry x="30" y="560" width="100" height="40" as="geometry" />
        </mxCell>
        <mxCell id="7QtbccY-P1DONQSe7xPX-48" value="Codigo" style="ellipse;whiteSpace=wrap;html=1;align=center;fontStyle=4;" vertex="1" parent="1">
          <mxGeometry x="-90" y="460" width="100" height="40" as="geometry" />
        </mxCell>
        <mxCell id="7QtbccY-P1DONQSe7xPX-49" value="Nombre" style="ellipse;whiteSpace=wrap;html=1;align=center;" vertex="1" parent="1">
          <mxGeometry x="150" y="480" width="100" height="40" as="geometry" />
        </mxCell>
        <mxCell id="7QtbccY-P1DONQSe7xPX-50" value="Valor_Cuota" style="ellipse;whiteSpace=wrap;html=1;align=center;" vertex="1" parent="1">
          <mxGeometry x="-130" y="550" width="100" height="40" as="geometry" />
        </mxCell>
        <mxCell id="7QtbccY-P1DONQSe7xPX-52" value="" style="endArrow=none;html=1;rounded=0;entryX=0;entryY=0.25;entryDx=0;entryDy=0;exitX=0.58;exitY=1.025;exitDx=0;exitDy=0;exitPerimeter=0;" edge="1" parent="1" source="7QtbccY-P1DONQSe7xPX-48" target="7QtbccY-P1DONQSe7xPX-47">
          <mxGeometry relative="1" as="geometry">
            <mxPoint x="190" y="564" as="sourcePoint" />
            <mxPoint x="130" y="560" as="targetPoint" />
          </mxGeometry>
        </mxCell>
        <mxCell id="7QtbccY-P1DONQSe7xPX-53" value="" style="endArrow=none;html=1;rounded=0;entryX=0.75;entryY=0;entryDx=0;entryDy=0;exitX=0;exitY=0.5;exitDx=0;exitDy=0;" edge="1" parent="1" source="7QtbccY-P1DONQSe7xPX-49" target="7QtbccY-P1DONQSe7xPX-47">
          <mxGeometry relative="1" as="geometry">
            <mxPoint x="190" y="584" as="sourcePoint" />
            <mxPoint x="130" y="580" as="targetPoint" />
          </mxGeometry>
        </mxCell>
        <mxCell id="7QtbccY-P1DONQSe7xPX-54" value="" style="endArrow=none;html=1;rounded=0;entryX=0;entryY=0.75;entryDx=0;entryDy=0;" edge="1" parent="1" target="7QtbccY-P1DONQSe7xPX-47">
          <mxGeometry relative="1" as="geometry">
            <mxPoint x="-30" y="570" as="sourcePoint" />
            <mxPoint x="100" y="600" as="targetPoint" />
          </mxGeometry>
        </mxCell>
        <mxCell id="7QtbccY-P1DONQSe7xPX-57" value="Duracion" style="ellipse;whiteSpace=wrap;html=1;align=center;" vertex="1" parent="1">
          <mxGeometry x="30" y="460" width="100" height="40" as="geometry" />
        </mxCell>
        <mxCell id="7QtbccY-P1DONQSe7xPX-58" value="" style="endArrow=none;html=1;rounded=0;entryX=0.5;entryY=0;entryDx=0;entryDy=0;" edge="1" parent="1" target="7QtbccY-P1DONQSe7xPX-47">
          <mxGeometry relative="1" as="geometry">
            <mxPoint x="70" y="500" as="sourcePoint" />
            <mxPoint x="230" y="500" as="targetPoint" />
          </mxGeometry>
        </mxCell>
        <mxCell id="7QtbccY-P1DONQSe7xPX-59" value="Instructor" style="whiteSpace=wrap;html=1;align=center;" vertex="1" parent="1">
          <mxGeometry x="510" y="560" width="100" height="40" as="geometry" />
        </mxCell>
        <mxCell id="7QtbccY-P1DONQSe7xPX-60" value="DNI" style="ellipse;whiteSpace=wrap;html=1;align=center;fontStyle=4;" vertex="1" parent="1">
          <mxGeometry x="510" y="480" width="100" height="40" as="geometry" />
        </mxCell>
        <mxCell id="7QtbccY-P1DONQSe7xPX-61" value="Nombre" style="ellipse;whiteSpace=wrap;html=1;align=center;" vertex="1" parent="1">
          <mxGeometry x="540" y="650" width="100" height="40" as="geometry" />
        </mxCell>
        <mxCell id="7QtbccY-P1DONQSe7xPX-62" value="Correo" style="ellipse;whiteSpace=wrap;html=1;align=center;" vertex="1" parent="1">
          <mxGeometry x="660" y="565" width="100" height="40" as="geometry" />
        </mxCell>
        <mxCell id="7QtbccY-P1DONQSe7xPX-64" value="" style="endArrow=none;html=1;rounded=0;entryX=0.5;entryY=1;entryDx=0;entryDy=0;exitX=0.5;exitY=0;exitDx=0;exitDy=0;" edge="1" parent="1" source="7QtbccY-P1DONQSe7xPX-61" target="7QtbccY-P1DONQSe7xPX-59">
          <mxGeometry relative="1" as="geometry">
            <mxPoint x="530" y="660" as="sourcePoint" />
            <mxPoint x="690" y="660" as="targetPoint" />
          </mxGeometry>
        </mxCell>
        <mxCell id="7QtbccY-P1DONQSe7xPX-67" value="" style="endArrow=none;html=1;rounded=0;entryX=1;entryY=0.5;entryDx=0;entryDy=0;exitX=0;exitY=0.5;exitDx=0;exitDy=0;" edge="1" parent="1" source="7QtbccY-P1DONQSe7xPX-62" target="7QtbccY-P1DONQSe7xPX-59">
          <mxGeometry relative="1" as="geometry">
            <mxPoint x="690" y="565" as="sourcePoint" />
            <mxPoint x="760" y="545" as="targetPoint" />
          </mxGeometry>
        </mxCell>
        <mxCell id="7QtbccY-P1DONQSe7xPX-69" value="" style="endArrow=none;html=1;rounded=0;entryX=0.5;entryY=1;entryDx=0;entryDy=0;exitX=0.5;exitY=0;exitDx=0;exitDy=0;" edge="1" parent="1" source="7QtbccY-P1DONQSe7xPX-59">
          <mxGeometry relative="1" as="geometry">
            <mxPoint x="540" y="584" as="sourcePoint" />
            <mxPoint x="562" y="520" as="targetPoint" />
          </mxGeometry>
        </mxCell>
        <mxCell id="7QtbccY-P1DONQSe7xPX-70" value="Alumno" style="whiteSpace=wrap;html=1;align=center;" vertex="1" parent="1">
          <mxGeometry x="10" y="930" width="100" height="40" as="geometry" />
        </mxCell>
        <mxCell id="7QtbccY-P1DONQSe7xPX-71" value="Legajo" style="ellipse;whiteSpace=wrap;html=1;align=center;fontStyle=4;" vertex="1" parent="1">
          <mxGeometry x="-110" y="830" width="100" height="40" as="geometry" />
        </mxCell>
        <mxCell id="7QtbccY-P1DONQSe7xPX-72" value="Nombre" style="ellipse;whiteSpace=wrap;html=1;align=center;" vertex="1" parent="1">
          <mxGeometry x="130" y="850" width="100" height="40" as="geometry" />
        </mxCell>
        <mxCell id="7QtbccY-P1DONQSe7xPX-73" value="Telefono" style="ellipse;whiteSpace=wrap;html=1;align=center;" vertex="1" parent="1">
          <mxGeometry x="-150" y="920" width="100" height="40" as="geometry" />
        </mxCell>
        <mxCell id="7QtbccY-P1DONQSe7xPX-74" value="" style="endArrow=none;html=1;rounded=0;entryX=0;entryY=0.25;entryDx=0;entryDy=0;exitX=0.58;exitY=1.025;exitDx=0;exitDy=0;exitPerimeter=0;" edge="1" parent="1" source="7QtbccY-P1DONQSe7xPX-71" target="7QtbccY-P1DONQSe7xPX-70">
          <mxGeometry relative="1" as="geometry">
            <mxPoint x="170" y="934" as="sourcePoint" />
            <mxPoint x="110" y="930" as="targetPoint" />
          </mxGeometry>
        </mxCell>
        <mxCell id="7QtbccY-P1DONQSe7xPX-75" value="" style="endArrow=none;html=1;rounded=0;entryX=0.75;entryY=0;entryDx=0;entryDy=0;exitX=0;exitY=0.5;exitDx=0;exitDy=0;" edge="1" parent="1" source="7QtbccY-P1DONQSe7xPX-72" target="7QtbccY-P1DONQSe7xPX-70">
          <mxGeometry relative="1" as="geometry">
            <mxPoint x="170" y="954" as="sourcePoint" />
            <mxPoint x="110" y="950" as="targetPoint" />
          </mxGeometry>
        </mxCell>
        <mxCell id="7QtbccY-P1DONQSe7xPX-76" value="" style="endArrow=none;html=1;rounded=0;entryX=0;entryY=0.75;entryDx=0;entryDy=0;" edge="1" parent="1" target="7QtbccY-P1DONQSe7xPX-70">
          <mxGeometry relative="1" as="geometry">
            <mxPoint x="-50" y="940" as="sourcePoint" />
            <mxPoint x="80" y="970" as="targetPoint" />
          </mxGeometry>
        </mxCell>
        <mxCell id="7QtbccY-P1DONQSe7xPX-80" value="" style="endArrow=none;html=1;rounded=0;entryX=0.75;entryY=1;entryDx=0;entryDy=0;" edge="1" parent="1" source="7QtbccY-P1DONQSe7xPX-79" target="7QtbccY-P1DONQSe7xPX-83">
          <mxGeometry width="50" height="50" relative="1" as="geometry">
            <mxPoint x="130" y="585" as="sourcePoint" />
            <mxPoint x="180" y="535" as="targetPoint" />
          </mxGeometry>
        </mxCell>
        <mxCell id="7QtbccY-P1DONQSe7xPX-81" value="" style="endArrow=none;html=1;rounded=0;entryX=0;entryY=0.5;entryDx=0;entryDy=0;" edge="1" parent="1" target="7QtbccY-P1DONQSe7xPX-79">
          <mxGeometry width="50" height="50" relative="1" as="geometry">
            <mxPoint x="130" y="585" as="sourcePoint" />
            <mxPoint x="510" y="580" as="targetPoint" />
          </mxGeometry>
        </mxCell>
        <mxCell id="7QtbccY-P1DONQSe7xPX-79" value="Dictado" style="shape=rhombus;perimeter=rhombusPerimeter;whiteSpace=wrap;html=1;align=center;" vertex="1" parent="1">
          <mxGeometry x="280" y="557.5" width="100" height="55" as="geometry" />
        </mxCell>
        <mxCell id="7QtbccY-P1DONQSe7xPX-82" value="N" style="text;html=1;align=center;verticalAlign=middle;whiteSpace=wrap;rounded=0;" vertex="1" parent="1">
          <mxGeometry x="110" y="560" width="60" height="30" as="geometry" />
        </mxCell>
        <mxCell id="7QtbccY-P1DONQSe7xPX-83" value="1" style="text;html=1;align=center;verticalAlign=middle;whiteSpace=wrap;rounded=0;" vertex="1" parent="1">
          <mxGeometry x="470" y="557.5" width="60" height="30" as="geometry" />
        </mxCell>
        <mxCell id="7QtbccY-P1DONQSe7xPX-84" value="" style="endArrow=none;html=1;rounded=0;exitX=0.5;exitY=0;exitDx=0;exitDy=0;" edge="1" parent="1" source="7QtbccY-P1DONQSe7xPX-85">
          <mxGeometry width="50" height="50" relative="1" as="geometry">
            <mxPoint x="30" y="650" as="sourcePoint" />
            <mxPoint x="80" y="600" as="targetPoint" />
          </mxGeometry>
        </mxCell>
        <mxCell id="7QtbccY-P1DONQSe7xPX-86" value="" style="endArrow=none;html=1;rounded=0;exitX=0.39;exitY=-0.05;exitDx=0;exitDy=0;exitPerimeter=0;" edge="1" parent="1" source="7QtbccY-P1DONQSe7xPX-70" target="7QtbccY-P1DONQSe7xPX-85">
          <mxGeometry width="50" height="50" relative="1" as="geometry">
            <mxPoint x="49" y="928" as="sourcePoint" />
            <mxPoint x="80" y="600" as="targetPoint" />
          </mxGeometry>
        </mxCell>
        <mxCell id="7QtbccY-P1DONQSe7xPX-85" value="Toma" style="shape=rhombus;perimeter=rhombusPerimeter;whiteSpace=wrap;html=1;align=center;" vertex="1" parent="1">
          <mxGeometry x="10" y="700" width="120" height="60" as="geometry" />
        </mxCell>
        <mxCell id="7QtbccY-P1DONQSe7xPX-87" value="N" style="text;html=1;align=center;verticalAlign=middle;whiteSpace=wrap;rounded=0;" vertex="1" parent="1">
          <mxGeometry x="60" y="600" width="60" height="30" as="geometry" />
        </mxCell>
        <mxCell id="7QtbccY-P1DONQSe7xPX-88" value="N" style="text;html=1;align=center;verticalAlign=middle;whiteSpace=wrap;rounded=0;" vertex="1" parent="1">
          <mxGeometry x="30" y="900" width="60" height="30" as="geometry" />
        </mxCell>
      </root>
    </mxGraphModel>
  </diagram>
</mxfile>
